<?xml version="1.0" encoding="utf-8"?>
<svg viewBox="-2.503 -2.19 271.946 235.56" xmlns="http://www.w3.org/2000/svg" xmlns:bx="https://boxy-svg.com">
  <defs>
    <style>.cls-1{fill:#787878;}</style>
    <linearGradient id="gradient-2" gradientUnits="userSpaceOnUse" x1="133.47" y1="0" x2="133.47" y2="231.18" gradientTransform="matrix(0.999975, 0.007145, -0.007653, 1.070801, 3.165089, -15.405731)">
      <stop offset="0" style="stop-color: rgb(3, 8, 147);"/>
      <stop offset="1" style="stop-color: rgb(159, 162, 255);"/>
    </linearGradient>
    <style bx:fonts="Baumans" bx:collect="">@font-face { font-family: "Baumans"; font-style: normal; font-weight: 400; font-stretch: normal; font-unicode-range: U+0-10FFFF; font-variant: normal; font-feature-settings: normal; src: url(https://fonts.gstatic.com/s/baumans/v7/-W_-XJj9QyTd3QfpR_o.ttf); }</style>
  </defs>
  <title>Element 8</title>
  <g id="Ebene_2" data-name="Ebene 2">
    <g id="Bild">
      <polygon class="cls-1" points="200.2 0 66.73 0 0 115.59 66.73 231.18 200.2 231.18 266.94 115.59 200.2 0" style="fill: url(#gradient-2); stroke-width: 4px; stroke: rgb(0, 7, 151);"/>
    </g>
  </g>
  <text transform="matrix(1.027592, 0, 0, 1.21111, 30.646799, 4.622741)" style="fill: rgb(255, 255, 255); font-family: Baumans; font-size: 30.3932px; letter-spacing: -2.4px; line-height: 48.6292px; stroke: rgb(0, 13, 102); stroke-width: 0px; word-spacing: -6.6px; white-space: pre; vector-effect: non-scaling-stroke;" x="14.187" y="134.371" dx="0 0 0 0 0 0 0 0 0 0 0 0 0 0 1.5" dy="0 0 0 0 0 0 0 0 0 0 0 0 0 0 -20.494">shinydashboard+</text>
  <text x="204.15" y="87.611" style="white-space: pre; fill: rgb(51, 51, 51); font-size: 24px;"> </text>
  <text x="226.279" y="157.373" style="white-space: pre; fill: rgb(51, 51, 51); font-size: 24px;"> </text>
  <text x="224.779" y="164.124" style="white-space: pre; fill: rgb(51, 51, 51); font-size: 24px;"> </text>
  <text x="265.66" y="75.984" style="white-space: pre; fill: rgb(51, 51, 51); font-size: 24px;"> </text>
  <text x="266.786" y="32.852" style="white-space: pre; fill: rgb(51, 51, 51); font-size: 24px;"> </text>
  <text x="269.768" y="178.608" style="white-space: pre; fill: rgb(51, 51, 51); font-size: 24px;"> </text>
  <text x="84.087" y="149.177" style="white-space: pre; fill: rgb(51, 51, 51); font-size: 24px;"> </text>
  <g transform="matrix(0.293701, 0, 0, 0.230018, 121.253571, 60.784874)">
    <g>
      <g transform="matrix(0.600802, 0, 0, 0.648583, -110.054897, -125.405031)">
        <g>
          <g>
            <path d="M128.686,37.216c-4.761-4.067-11.789-4.012-16.486,0.128L77.853,68.081v-4.028c0-4.713-3.82-8.533-8.533-8.533 s-8.533,3.82-8.533,8.533v19.311L46.561,96.096c-3.459,3.155-3.73,8.508-0.607,11.997s8.473,3.809,11.99,0.718l62.575-56.013 l62.575,56.013c2.266,2.067,5.468,2.759,8.385,1.812c2.918-0.947,5.102-3.387,5.722-6.392c0.62-3.004-0.42-6.11-2.724-8.135 L128.686,37.216z" style="fill: rgb(255, 255, 255);"/>
            <path d="M171.72,119.52c-4.713,0-8.533,3.82-8.533,8.533v59.733H77.853v-59.733c0-4.713-3.82-8.533-8.533-8.533 s-8.533,3.82-8.533,8.533v65.152c0.084,6.515,5.432,11.729,11.947,11.648h95.573c6.519,0.066,11.862-5.155,11.947-11.674v-65.126 C180.253,123.34,176.432,119.52,171.72,119.52z" style="fill: rgb(255, 255, 255);"/>
            <path d="M120.52,221.92c-32.99,0-59.733,26.744-59.733,59.733s26.744,59.733,59.733,59.733s59.733-26.744,59.733-59.733 C180.215,248.679,153.494,221.957,120.52,221.92z M77.853,281.653c0.026-20.268,14.281-37.731,34.133-41.813v36.975 L80.413,295.75C78.76,291.232,77.894,286.464,77.853,281.653z M89.207,310.382l29.99-17.994l24.815,24.815 C126.579,328.833,103.257,325.93,89.207,310.382z M156.078,305.137l-27.025-27.017V239.84 c13.892,2.815,25.474,12.357,30.895,25.454C165.368,278.391,163.918,293.327,156.078,305.137z" style="fill: rgb(255, 255, 255);"/>
            <path d="M461.853,153.653v-29.21c-0.005-7.43-6.027-13.452-13.457-13.457H424.11c-7.43,0.005-13.452,6.027-13.457,13.457v29.21 h-17.067v-53.504c-0.009-8.149-6.613-14.753-14.763-14.763h-21.675C349,85.396,342.396,92,342.386,100.149v53.504H325.32V59.786 c0-9.426-7.641-17.067-17.067-17.067h-17.067c-9.426,0-17.067,7.641-17.067,17.067v93.867h-8.533 c-4.713,0-8.533-3.821-8.533-8.533V42.72c0-4.713-3.821-8.533-8.533-8.533s-8.533,3.82-8.533,8.533v102.4 c0,14.138,11.461,25.6,25.6,25.6h196.267c4.713,0,8.533-3.82,8.533-8.533S466.566,153.653,461.853,153.653z M308.253,153.653 h-17.067V59.786h17.067V153.653z M376.52,153.653h-17.067v-51.2h17.067V153.653z M444.786,153.653H427.72v-25.6h17.067V153.653z" style="fill: rgb(255, 255, 255);"/>
            <path d="M461.853,324.32H265.586c-4.713,0-8.533-3.82-8.533-8.533v-13.534l28.1-28.1c3.371-3.236,8.695-3.236,12.066,0 l10.001,10.001c9.997,9.994,26.202,9.994,36.198,0l35.601-35.601c3.371-3.236,8.695-3.236,12.066,0l10.001,10.01 c10.008,9.966,26.19,9.966,36.198,0l30.601-30.601c3.234-3.348,3.188-8.671-0.104-11.962c-3.292-3.292-8.614-3.338-11.962-0.104 l-30.601,30.592c-3.332,3.331-8.734,3.331-12.066,0l-10.001-10.001c-10.13-9.668-26.069-9.668-36.198,0l-35.601,35.601 c-3.332,3.331-8.734,3.331-12.066,0l-9.992-10.001c-10.132-9.669-26.075-9.669-36.207,0l-16.034,16.034v-64.734 c0-4.713-3.821-8.533-8.533-8.533s-8.533,3.821-8.533,8.533v102.4c0,14.138,11.461,25.6,25.6,25.6h196.267 c4.713,0,8.533-3.821,8.533-8.533C470.386,328.14,466.566,324.32,461.853,324.32z" style="fill: rgb(255, 255, 255);"/>
            <path d="M 513.053 396.46 L 513.053 47.37 C 514.24 22.556 495.19 1.43 470.386 0.053 L 155.171 0.053 L 43.72 0.053 C 18.916 1.431 -0.134 22.557 1.053 47.37 L 1.053 396.46 C -0.138 421.277 18.912 442.408 43.72 443.786 L 180.253 443.786 L 180.253 460.853 L 146.12 460.853 C 127.269 460.853 111.987 476.135 111.987 494.986 L 111.987 503.519 C 111.987 508.232 115.807 512.052 120.52 512.052 L 393.587 512.052 C 398.3 512.052 402.12 508.232 402.12 503.519 L 402.12 494.986 C 402.12 476.135 386.838 460.853 367.987 460.853 L 333.854 460.853 L 333.854 443.786 L 470.387 443.786 C 495.194 442.409 514.244 421.277 513.053 396.46 Z M 367.986 477.92 C 377.412 477.92 385.053 485.561 385.053 494.987 L 129.053 494.987 C 129.053 485.561 136.694 477.92 146.12 477.92 L 367.986 477.92 Z M 197.32 460.853 L 197.32 443.786 L 316.787 443.786 L 316.787 460.853 L 197.32 460.853 Z M 470.386 426.72 L 43.72 426.72 C 28.359 425.31 16.966 411.843 18.12 396.461 L 18.12 375.52 L 495.987 375.52 L 495.987 396.461 C 497.141 411.843 485.748 425.31 470.386 426.72 Z M 495.986 47.37 L 495.986 358.453 L 18.12 358.453 L 18.12 47.37 C 16.966 31.989 28.36 18.525 43.72 17.119 L 470.387 17.119 C 485.746 18.525 497.141 31.989 495.986 47.37 Z" style="fill: rgb(227, 228, 255);"/>
          </g>
        </g>
      </g>
    </g>
    <g>
      <g/>
    </g>
  </g>
  <text x="65.765" y="71.145" style="white-space: pre; fill: rgb(51, 51, 51); font-size: 24px;"> </text>
  <text x="286.231" y="121.793" style="white-space: pre; fill: rgb(51, 51, 51); font-size: 24px;"> </text>
  <text x="237.668" y="277.965" style="white-space: pre; fill: rgb(51, 51, 51); font-size: 24px;"> </text>
  <text x="329.137" y="238.796" style="white-space: pre;"> </text>
  <text style="font-family: Roboto; font-size: 18px; white-space: pre;" x="0.467" y="263.36">www.flaticon.com
- By Smashicons</text>
  <text x="-147.795" y="200.355" style="white-space: pre;"> </text>
</svg>